<svg width="86" height="70" viewBox="0 0 86 70" fill="none" xmlns="http://www.w3.org/2000/svg">
<path d="M31.3204 41.8461C29.0954 40.9048 28.582 39.7923 28.4108 39.1077V39.0221V38.9365V38.851C28.4108 38.851 28.4108 38.851 28.4108 38.7654C28.4108 38.6798 28.4108 38.6798 28.4108 38.5942C28.4108 38.5087 28.4108 38.5087 28.4108 38.4231H28.3253H28.4108C28.4964 37.9952 28.6676 37.5673 28.9243 37.1395L29.0099 37.0539C30.2079 35.3424 33.0319 33.7165 36.4549 32.6896C38.851 32.005 41.2471 31.7482 43.1297 31.9194C45.0124 32.0905 46.1248 32.6896 46.3816 33.6309C46.6383 34.5722 45.7825 35.8558 43.9855 37.0539L43.8999 37.1395L45.4402 38.2519C45.4402 38.2519 46.9806 39.45 48.6921 37.7385C50.318 35.9414 50.917 34.0588 50.4892 32.5184C49.9757 30.6358 48.0931 29.2666 45.2691 28.6676C42.4451 28.0685 38.9366 28.2397 35.428 29.2666C31.9194 30.2079 28.8387 31.9194 26.6993 33.8876C24.56 35.9414 23.7042 38.0808 24.2177 39.8779C24.3888 40.648 24.9023 41.3326 25.5869 41.9317H2.48167C2.13937 41.9317 1.7115 42.1028 1.3692 42.4451C0.513449 43.3008 0 44.9268 0 45.0979V45.1835H16.7727V46.1248C16.2592 46.2104 7.70173 48.3498 2.82397 53.3131C2.13937 53.9977 2.0538 55.0246 2.56725 55.8804C4.36432 58.4476 9.07093 63.3254 20.7091 66.7484H20.7947V46.1248V46.0392V45.0979H27.3839V63.6677C27.3839 64.0955 27.6407 64.609 28.0685 65.0369C29.181 66.2349 31.2348 66.7484 31.3204 66.7484H31.406V45.0979H49.8901V46.1248C49.3767 46.2104 40.8192 48.3498 35.9414 53.3131C35.2568 53.9977 35.1713 55.0246 35.6847 55.8804C37.4818 58.4476 42.1884 63.3254 53.8266 66.7484H53.9121V46.1248V46.0392V45.0979C54.2544 45.0979 54.6823 44.9268 55.0246 44.5845C55.7948 43.8143 56.3082 42.3595 56.3938 41.9317V41.8461H31.3204ZM16.7727 61.1004C16.0025 60.8437 11.467 59.1322 7.87288 55.6236C7.70173 55.538 7.70173 55.3669 7.70173 55.1957C7.70173 55.0246 7.78731 54.8535 7.87288 54.7679C9.07093 53.6554 12.4084 51.0026 16.7727 50.4036V61.1004ZM49.9757 61.1004C49.2055 60.8437 44.6701 59.1322 41.0759 55.6236C40.9903 55.538 40.9048 55.3669 40.9048 55.1957C40.9048 55.0246 40.9903 54.8535 41.0759 54.7679C42.274 53.6554 45.6114 51.0026 49.9757 50.4036V61.1004Z" fill="white"/>
<path d="M8.72899 70.0005C10.1941 70.0005 11.3818 68.7744 11.3818 67.2621C11.3818 65.7497 10.1941 64.5237 8.72899 64.5237C7.26388 64.5237 6.07617 65.7497 6.07617 67.2621C6.07617 68.7744 7.26388 70.0005 8.72899 70.0005Z" fill="white"/>
<path d="M55.3678 0V18.4842L68.9742 26.357L54.5977 34.6578L70.5146 43.8999L85.7469 35.0857V17.5428L55.3678 0Z" fill="white"/>
<path d="M56.1367 34.6579L70.5133 43.0443V26.3572L56.1367 34.6579Z" fill="#ED3D7F"/>
<path d="M56.1367 1.36938V18.0565L70.5133 9.67014L56.1367 1.36938Z" fill="#FCB833"/>
<path d="M70.5133 9.66968L56.1367 18.056L70.5133 26.3568V9.66968Z" fill="#F6921E"/>
<path d="M84.9758 34.6577V18.0562L70.5137 26.3569L84.9758 34.6577Z" fill="#7B1B67"/>
<path d="M70.5137 26.3568L84.9758 18.056L70.5137 9.66968V26.3568Z" fill="#F05A22"/>
<path d="M84.9758 34.6579L70.5137 26.3572V43.0443L84.9758 34.6579Z" fill="#C30D42"/>
</svg>
